<svg version="1.1" viewBox="0 0 16 16" xmlns="http://www.w3.org/2000/svg"><path d="m-4.01-4h24v24h-24z" fill="none"/><path d="m0 0v16h16v-16h-16zm7.9961 2.5c1.5203 0 2.8892 0.61836 3.8867 1.6152l1.6172-1.6152v4.8125h-4.8164l2.2168-2.2129c-0.74296-0.74938-1.7623-1.2246-2.9043-1.2246-2.277 0-4.127 1.8494-4.127 4.125s1.8499 4.125 4.127 4.125c1.7955 0 3.3226-1.1481 3.8867-2.75h1.4316c-0.61226 2.3719-2.7524 4.125-5.3184 4.125-3.0407 0-5.4961-2.4612-5.4961-5.5s2.4554-5.5 5.4961-5.5z" stroke-width="0"/></svg>
