<svg enable-background="new 0 0 24 24" version="1.1" viewBox="0 0 20 20" xmlns="http://www.w3.org/2000/svg"><g transform="translate(-2,-2)"><path d="m0 0h24v24h-24z" fill="none"/></g><g transform="translate(-2,-2)"><path d="m22 2h-20v20h20zm-14 6.22c0-0.86 0.7-1.56 1.56-1.56 0.33 0 0.64 0.1 0.89 0.28l-0.01-0.12c0-0.86 0.7-1.56 1.56-1.56s1.56 0.7 1.56 1.56l-0.01 0.12c0.26-0.18 0.56-0.28 0.89-0.28 0.86 0 1.56 0.7 1.56 1.56 0 0.62-0.37 1.16-0.89 1.4 0.52 0.25 0.89 0.79 0.89 1.41 0 0.86-0.7 1.56-1.56 1.56-0.33 0-0.64-0.11-0.89-0.28l0.01 0.12c0 0.86-0.7 1.56-1.56 1.56s-1.56-0.7-1.56-1.56l0.01-0.12c-0.26 0.18-0.56 0.28-0.89 0.28-0.86 0-1.56-0.7-1.56-1.56 0-0.62 0.37-1.16 0.89-1.4-0.52-0.25-0.89-0.79-0.89-1.41zm4 10.78c-3.31 0-6-2.69-6-6 3.31 0 6 2.69 6 6 0-3.31 2.69-6 6-6 0 3.31-2.69 6-6 6z"/><circle cx="12" cy="9.62" r="1.56"/></g></svg>
